<svg width="50" height="50" viewBox="0 0 50 50" fill="none" xmlns="http://www.w3.org/2000/svg">
<path d="M25.0001 18.4033C21.434 18.4033 18.4028 21.4345 18.4028 25.0005C18.4028 28.5666 21.434 31.5978 25.0001 31.5978C28.5661 31.5978 31.5973 28.5666 31.5973 25.0005C31.5973 21.4345 28.5661 18.4033 25.0001 18.4033Z" fill="#296090"/>
<path d="M33.4564 5.2085H16.7234C10.2461 5.2085 5.20825 10.2464 5.20825 16.5437V33.2767C5.20825 39.754 10.2461 44.7918 16.7234 44.7918H33.4564C39.7537 44.7918 44.7916 39.754 44.7916 33.2767V16.5437C44.7916 10.2464 39.7537 5.2085 33.4564 5.2085ZM24.9999 35.4358C19.2423 35.4358 14.7442 30.7577 14.7442 25.1801C14.7442 19.6024 19.2423 14.7445 24.9999 14.7445C30.7575 14.7445 35.2556 19.4225 35.2556 25.0002C35.2556 30.5778 30.7575 35.4358 24.9999 35.4358ZM35.6154 16.9036C34.356 16.9036 33.2764 15.824 33.2764 14.5646C33.2764 13.3051 34.356 12.2255 35.6154 12.2255C36.8749 12.2255 37.9545 13.3051 37.9545 14.5646C37.9545 15.824 36.8749 16.9036 35.6154 16.9036Z" fill="#296090"/>
</svg>
