<svg width="50" height="50" viewBox="0 0 50 50" fill="none" xmlns="http://www.w3.org/2000/svg">
<g clip-path="url(#clip0_23_213)">
<path d="M14.6331 18.7476H6.81152V43.7496H14.6331V18.7476Z" fill="#296090"/>
<path d="M42.8149 30.345V43.7501H34.9933V31.252C34.9933 27.9655 34.5987 25.3034 30.7704 25.3034C26.942 25.3034 26.5533 27.9714 26.5533 31.252V43.7501H18.7317V18.7481H26.5533V22.3231C27.7312 19.7258 29.9576 18.0825 34.0745 18.0825C34.3926 18.0825 34.6988 18.0943 34.9933 18.112C42.0552 18.5301 42.8149 23.8427 42.8149 30.345Z" fill="#296090"/>
<path d="M15.2083 10.7262C15.2083 8.25252 13.1999 6.25 10.7262 6.25C8.25252 6.25 6.25 8.25252 6.25 10.7262C6.25 13.1999 8.25252 15.2024 10.7262 15.2024C13.1999 15.2024 15.2024 13.1999 15.2024 10.7262H15.2083Z" fill="#296090"/>
</g>
<defs>
<clipPath id="clip0_23_213">
<rect width="50" height="50" fill="white"/>
</clipPath>
</defs>
</svg>
